<svg width="100" height="100" viewBox="0 0 100 100" fill="none" xmlns="http://www.w3.org/2000/svg">
<g clip-path="url(#clip0_6_2099)">
<rect width="100" height="100" rx="50" fill="url(#paint0_linear_6_2099)"/>
<path opacity="0.6" d="M76.6411 18.1165H70.8554C69.0731 18.1165 67.6282 16.6184 67.6282 14.7703C67.6282 12.9222 69.0731 11.4241 70.8554 11.4241C71.3933 11.4241 71.9004 11.5605 72.3464 11.8018C72.9674 9.93429 74.6772 8.59269 76.6893 8.59269C79.2258 8.59269 81.2819 10.7247 81.2819 13.3546C81.2819 13.4085 81.2811 13.4622 81.2794 13.5157C82.0198 13.9281 82.5232 14.7387 82.5232 15.6712C82.5232 17.0217 81.4673 18.1165 80.1648 18.1165H76.6893C76.6821 18.1165 76.6411 18.1165 76.6411 18.1165H76.6893H76.6411Z" fill="url(#paint1_linear_6_2099)"/>
<path fill-rule="evenodd" clip-rule="evenodd" d="M46.8599 48.8095L120.191 89.1893V123.774H-20.238L-19.5743 90.8577L46.8599 48.8095Z" fill="#198FEA"/>
<path fill-rule="evenodd" clip-rule="evenodd" d="M45.8508 52.0382L49.9763 53.0476L49.6581 50.369L72.3701 62.9215H68.5174L66.8891 64.1207L57.7296 58.9491L64.7699 65.6814L62.932 67.0349L64.0643 70.113L55.8912 73.8049L47.5877 65.5778L52.93 66.5516L49.5472 61.3087L57.7296 65.1129L50.8065 58.9491L53.9232 59.9998L45.8508 52.0382Z" fill="url(#paint2_linear_6_2099)"/>
<path fill-rule="evenodd" clip-rule="evenodd" d="M73.3066 65.534L78.417 63.6167L100.436 78.806L96.9849 82.3996L93.1813 81.1114L95.5794 83.8699L89.6483 90.0542L81.0648 86.2917L85.9606 95.1033L70.5163 84.1707L70.1054 77.2228L66.233 71.9372L69.8476 72.8646L68.6118 67.8405L74.096 67.2584L73.3066 65.534Z" fill="url(#paint3_linear_6_2099)"/>
<path fill-rule="evenodd" clip-rule="evenodd" d="M40.7887 73.3966L48.5559 77.5298V74.7461L64.5949 88.8481L62.0565 83.2063L71.427 86.2917L80.6123 97.347L73.5002 98.3577L59.1104 91.5136L66.3726 99.3706L57.7993 100.589L40.7887 85.3137V80.4575L45.8508 83.2063L40.7887 73.3966Z" fill="url(#paint4_linear_6_2099)"/>
<path fill-rule="evenodd" clip-rule="evenodd" d="M15.4055 74.7218L14.6963 70.9714L22.7046 73.8049L30.7129 80.3288L22.7173 79.49L15.4055 74.7218Z" fill="url(#paint5_linear_6_2099)"/>
<path fill-rule="evenodd" clip-rule="evenodd" d="M19.2264 85.1368L16.649 80.9038L23.1339 82.4257L22.0909 84.1422L19.2264 85.1368Z" fill="url(#paint6_linear_6_2099)"/>
<path fill-rule="evenodd" clip-rule="evenodd" d="M22.3105 68.0428H24.8508L23.6781 65.5778L27.111 67.0795L30.7128 70.0256L26.0814 71.395L22.3105 68.0428Z" fill="url(#paint7_linear_6_2099)"/>
<path opacity="0.5" d="M17.6584 35.7143H25.6598C28.1247 35.7143 30.1229 33.6543 30.1229 31.1133C30.1229 28.5722 28.1247 26.5122 25.6598 26.5122C24.9159 26.5122 24.2146 26.6998 23.5979 27.0316C22.7391 24.4638 20.3744 22.619 17.5918 22.619C14.084 22.619 11.2404 25.5505 11.2404 29.1667C11.2404 29.2408 11.2416 29.3146 11.244 29.3881C10.22 29.9552 9.5238 31.0698 9.5238 32.352C9.5238 34.2089 10.984 35.7143 12.7853 35.7143H17.5918C17.6018 35.7143 17.6584 35.7143 17.6584 35.7143H17.5918H17.6584Z" fill="url(#paint8_linear_6_2099)"/>
<ellipse cx="46.4285" cy="29.7619" rx="1.19048" ry="1.19048" fill="white"/>
<circle opacity="0.8" cx="45.2381" cy="72.619" r="1.19048" fill="white"/>
<ellipse opacity="0.9" cx="73.8095" cy="17.8571" rx="1.19048" ry="1.19048" fill="white"/>
<ellipse opacity="0.7" cx="69.0477" cy="52.381" rx="1.19048" ry="1.19048" fill="white"/>
<ellipse opacity="0.7" cx="63.0953" cy="80.9524" rx="1.19048" ry="1.19048" fill="white"/>
<circle cx="48.2143" cy="55.3571" r="0.595238" fill="white"/>
<circle cx="38.6905" cy="57.7381" r="0.595238" fill="white"/>
<ellipse cx="26.7857" cy="57.7381" rx="0.595239" ry="0.595238" fill="white"/>
<circle cx="18.4524" cy="38.6905" r="0.595238" fill="white"/>
<circle cx="31.5476" cy="30.3571" r="0.595238" fill="white"/>
<circle cx="0.595238" cy="0.595238" r="0.595238" transform="matrix(-1 0 0 1 80.9525 73.8095)" fill="white"/>
<circle cx="0.595238" cy="0.595238" r="0.595238" transform="matrix(-1 0 0 1 84.5239 65.4762)" fill="white"/>
<circle cx="0.595238" cy="0.595238" r="0.595238" transform="matrix(-1 0 0 1 55.9524 72.619)" fill="white"/>
<ellipse cx="0.59524" cy="0.595238" rx="0.59524" ry="0.595238" transform="matrix(-1 0 0 1 59.5238 59.5238)" fill="white"/>
<circle cx="0.595238" cy="0.595238" r="0.595238" transform="matrix(-1 0 0 1 51.1904 45.2381)" fill="white"/>
<circle cx="0.595238" cy="0.595238" r="0.595238" transform="matrix(-1 0 0 1 61.9047 48.8095)" fill="white"/>
<ellipse cx="0.595238" cy="0.595239" rx="0.595238" ry="0.595239" transform="matrix(-1 0 0 1 71.4285 28.5714)" fill="white"/>
<circle cx="38.7046" cy="80.6846" r="0.595237" transform="rotate(50 38.7046 80.6846)" fill="white"/>
<ellipse cx="0.595237" cy="0.595238" rx="0.595237" ry="0.595238" transform="matrix(0.642788 0.766044 -0.766045 0.642787 24.9762 80.4933)" fill="white"/>
<ellipse cx="0.595239" cy="0.595239" rx="0.595239" ry="0.595239" transform="matrix(0.642787 0.766045 -0.766044 0.642788 26.6218 71.3421)" fill="white"/>
<circle cx="0.595238" cy="0.595238" r="0.595238" transform="matrix(-1 0 0 1 91.6667 70.2381)" fill="white"/>
<circle cx="0.595238" cy="0.595238" r="0.595238" transform="matrix(-1 0 0 1 89.2858 64.2857)" fill="white"/>
<circle cx="0.595238" cy="0.595238" r="0.595238" transform="matrix(-1 0 0 1 80.9525 50)" fill="white"/>
<circle cx="0.595238" cy="0.595238" r="0.595238" transform="matrix(-1 0 0 1 72.619 59.5238)" fill="white"/>
<circle cx="0.595238" cy="0.595238" r="0.595238" transform="matrix(-1 0 0 1 70.238 39.2857)" fill="white"/>
<circle cx="0.595238" cy="0.595238" r="0.595238" transform="matrix(-1 0 0 1 13.0953 71.4286)" fill="white"/>
<ellipse cx="0.595238" cy="0.59524" rx="0.595238" ry="0.59524" transform="matrix(-1 0 0 1 16.6667 58.3333)" fill="white"/>
<ellipse cx="0.595238" cy="0.595238" rx="0.595238" ry="0.595238" transform="matrix(-1 0 0 1 10.7144 51.1905)" fill="white"/>
<ellipse cx="0.595238" cy="0.595238" rx="0.595238" ry="0.595238" transform="matrix(-1 0 0 1 3.57153 41.6667)" fill="white"/>
<circle cx="0.595238" cy="0.595238" r="0.595238" transform="matrix(-1 0 0 1 42.8572 66.6667)" fill="white"/>
<ellipse cx="0.595238" cy="0.59524" rx="0.595238" ry="0.59524" transform="matrix(-1 0 0 1 32.1429 46.4286)" fill="white"/>
<ellipse cx="0.59524" cy="0.595238" rx="0.59524" ry="0.595238" transform="matrix(0 -1 -1 0 40.4761 41.6667)" fill="white"/>
<circle cx="0.595238" cy="0.595238" r="0.595238" transform="matrix(0 -1 -1 0 60.7142 30.9524)" fill="white"/>
<circle cx="31.5476" cy="30.3571" r="0.595238" transform="rotate(-90 31.5476 30.3571)" fill="white"/>
<ellipse cx="12.5" cy="20.8333" rx="0.595239" ry="0.595238" transform="rotate(-90 12.5 20.8333)" fill="white"/>
<circle cx="0.595238" cy="0.595238" r="0.595238" transform="matrix(0 -1 -1 0 46.4286 16.6667)" fill="white"/>
<ellipse cx="0.595238" cy="0.595238" rx="0.595238" ry="0.595238" transform="matrix(0 -1 -1 0 35.7142 10.7143)" fill="white"/>
<ellipse cx="0.595239" cy="0.595238" rx="0.595239" ry="0.595238" transform="matrix(0 -1 -1 0 50 21.4286)" fill="white"/>
<ellipse cx="0.595238" cy="0.595238" rx="0.595238" ry="0.595238" transform="matrix(0 -1 -1 0 55.9524 8.33333)" fill="white"/>
<ellipse cx="0.595238" cy="0.595238" rx="0.595238" ry="0.595238" transform="matrix(0 -1 -1 0 63.0952 5.95238)" fill="white"/>
<circle cx="0.595238" cy="0.595238" r="0.595238" transform="matrix(-1 0 0 1 89.2858 41.6667)" fill="white"/>
<circle cx="0.595238" cy="0.595238" r="0.595238" transform="matrix(-1 0 0 1 80.9524 27.381)" fill="white"/>
</g>
<defs>
<linearGradient id="paint0_linear_6_2099" x1="-13.6189" y1="0" x2="-13.6189" y2="127.238" gradientUnits="userSpaceOnUse">
<stop stop-color="#3BA6FE"/>
<stop offset="1" stop-color="#D8F4FF"/>
</linearGradient>
<linearGradient id="paint1_linear_6_2099" x1="67.6282" y1="8.59269" x2="67.6282" y2="18.1165" gradientUnits="userSpaceOnUse">
<stop stop-color="white"/>
<stop offset="1" stop-color="white" stop-opacity="0.01"/>
</linearGradient>
<linearGradient id="paint2_linear_6_2099" x1="40.6526" y1="60.2254" x2="55.0592" y2="78.1461" gradientUnits="userSpaceOnUse">
<stop stop-color="#91CFFF"/>
<stop offset="1" stop-color="#198FEA"/>
</linearGradient>
<linearGradient id="paint3_linear_6_2099" x1="59.5286" y1="76.8591" x2="79.0392" y2="100.157" gradientUnits="userSpaceOnUse">
<stop stop-color="#91CFFF"/>
<stop offset="1" stop-color="#198FEA"/>
</linearGradient>
<linearGradient id="paint4_linear_6_2099" x1="32.9826" y1="84.8329" x2="48.3254" y2="109.534" gradientUnits="userSpaceOnUse">
<stop stop-color="#91CFFF"/>
<stop offset="1" stop-color="#198FEA"/>
</linearGradient>
<linearGradient id="paint5_linear_6_2099" x1="11.5568" y1="74.9068" x2="16.4383" y2="84.092" gradientUnits="userSpaceOnUse">
<stop stop-color="#91CFFF"/>
<stop offset="1" stop-color="#198FEA"/>
</linearGradient>
<linearGradient id="paint6_linear_6_2099" x1="15.3779" y1="82.6841" x2="17.7173" y2="86.6237" gradientUnits="userSpaceOnUse">
<stop stop-color="#91CFFF"/>
<stop offset="1" stop-color="#198FEA"/>
</linearGradient>
<linearGradient id="paint7_linear_6_2099" x1="20.6636" y1="68.0244" x2="23.9658" y2="73.2676" gradientUnits="userSpaceOnUse">
<stop stop-color="#91CFFF"/>
<stop offset="1" stop-color="#198FEA"/>
</linearGradient>
<linearGradient id="paint8_linear_6_2099" x1="30.1229" y1="22.619" x2="30.1229" y2="35.7143" gradientUnits="userSpaceOnUse">
<stop stop-color="white"/>
<stop offset="1" stop-color="white" stop-opacity="0.01"/>
</linearGradient>
<clipPath id="clip0_6_2099">
<rect width="100" height="100" rx="50" fill="white"/>
</clipPath>
</defs>
</svg>
