<svg width="84" height="84" viewBox="0 0 84 84" fill="none" xmlns="http://www.w3.org/2000/svg">
<g id="Weather / Day / Rainy / 2">
<g clip-path="url(#clip0_6_303)">
<rect width="84" height="84" rx="42" fill="url(#paint0_linear_6_303)"/>
<g id="Group">
<path id="Fill 319" fill-rule="evenodd" clip-rule="evenodd" d="M65.3536 71.7987H57.0665V63.0192H52.6327V55.6438H51.4084V43.5298C51.4084 43.2372 51.1712 43 50.8786 43C50.5861 43 50.3489 43.2372 50.3489 43.5298V55.6438H49.1184V63.0192H44.6845V71.7987H36.4605V94.8619H34.7511H66.9999H65.3536V71.7987Z" fill="#111125"/>
<path id="Fill 539" fill-rule="evenodd" clip-rule="evenodd" d="M41 81.8875H43V75H41V81.8875Z" fill="#AD9657"/>
<path id="Fill 539 Copy" fill-rule="evenodd" clip-rule="evenodd" d="M50 81.8875H52V75H50V81.8875Z" fill="#AD9657"/>
<path id="Fill 539 Copy 2" fill-rule="evenodd" clip-rule="evenodd" d="M59 81.8875H61V75H59V81.8875Z" fill="#AD9657"/>
<path id="Line 6" opacity="0.4" fill-rule="evenodd" clip-rule="evenodd" d="M17.301 19.3011C17.1838 19.4182 17.1838 19.6082 17.301 19.7253L19.4223 21.8467C19.5395 21.9638 19.7294 21.9638 19.8466 21.8467C19.9637 21.7295 19.9637 21.5395 19.8466 21.4224L17.7253 19.3011C17.6081 19.1839 17.4182 19.1839 17.301 19.3011ZM46.1208 46.1209C46.0037 46.238 46.0037 46.428 46.1208 46.5451L48.2421 48.6665C48.3593 48.7836 48.5492 48.7836 48.6664 48.6665C48.7836 48.5493 48.7836 48.3594 48.6664 48.2422L46.5451 46.1209C46.4279 46.0037 46.238 46.0037 46.1208 46.1209Z" fill="white"/>
<path id="Line 6_2" opacity="0.4" fill-rule="evenodd" clip-rule="evenodd" d="M38.7153 15.7153C38.5982 15.8324 38.5982 16.0224 38.7153 16.1396L40.8366 18.2609C40.9538 18.378 41.1437 18.378 41.2609 18.2609C41.3781 18.1437 41.3781 17.9538 41.2609 17.8366L39.1396 15.7153C39.0224 15.5981 38.8325 15.5981 38.7153 15.7153ZM50.029 27.029C49.9119 27.1462 49.9119 27.3361 50.029 27.4533L52.1503 29.5746C52.2675 29.6917 52.4574 29.6917 52.5746 29.5746C52.6918 29.4574 52.6918 29.2675 52.5746 29.1503L50.4533 27.029C50.3361 26.9118 50.1462 26.9118 50.029 27.029ZM53.3427 42.767C53.2256 42.6498 53.2256 42.4599 53.3427 42.3427C53.4599 42.2255 53.6498 42.2255 53.767 42.3427L55.8883 44.464C56.0055 44.5812 56.0055 44.7711 55.8883 44.8883C55.7712 45.0054 55.5812 45.0054 55.464 44.8883L53.3427 42.767ZM72.6564 49.6564C72.5393 49.7736 72.5393 49.9635 72.6564 50.0807L74.7778 52.202C74.8949 52.3192 75.0849 52.3192 75.202 52.202C75.3192 52.0848 75.3192 51.8949 75.202 51.7777L73.0807 49.6564C72.9635 49.5393 72.7736 49.5393 72.6564 49.6564Z" fill="white"/>
<path id="Line 6 Copy 2" opacity="0.4" fill-rule="evenodd" clip-rule="evenodd" d="M47.4016 1.82584C47.2844 1.70868 47.2844 1.51873 47.4016 1.40158C47.5187 1.28442 47.7087 1.28442 47.8259 1.40158L49.9472 3.5229C50.0643 3.64005 50.0643 3.83 49.9472 3.94716C49.83 4.06432 49.6401 4.06432 49.5229 3.94716L47.4016 1.82584ZM58.7153 13.1395C58.5981 13.0224 58.5981 12.8324 58.7153 12.7153C58.8325 12.5981 59.0224 12.5981 59.1396 12.7153L61.2609 14.8366C61.378 14.9538 61.378 15.1437 61.2609 15.2609C61.1437 15.378 60.9538 15.378 60.8366 15.2609L58.7153 13.1395ZM70.029 24.029C69.9118 24.1462 69.9118 24.3361 70.029 24.4533L72.1503 26.5746C72.2675 26.6917 72.4574 26.6917 72.5746 26.5746C72.6917 26.4574 72.6917 26.2675 72.5746 26.1503L70.4533 24.029C70.3361 23.9118 70.1462 23.9118 70.029 24.029Z" fill="white"/>
<path id="Line 6_3" opacity="0.4" fill-rule="evenodd" clip-rule="evenodd" d="M15.7153 36.1396C15.5982 36.0224 15.5982 35.8324 15.7153 35.7153C15.8325 35.5981 16.0224 35.5981 16.1396 35.7153L18.2609 37.8366C18.3781 37.9538 18.3781 38.1437 18.2609 38.2609C18.1437 38.378 17.9538 38.378 17.8366 38.2609L15.7153 36.1396ZM35.029 47.4533C34.9119 47.3361 34.9119 47.1462 35.029 47.029C35.1462 46.9118 35.3361 46.9118 35.4533 47.029L37.5746 49.1503C37.6918 49.2675 37.6918 49.4574 37.5746 49.5746C37.4574 49.6917 37.2675 49.6917 37.1503 49.5746L35.029 47.4533ZM38.3427 58.3427C38.2256 58.4599 38.2256 58.6498 38.3427 58.767L40.464 60.8883C40.5812 61.0054 40.7712 61.0054 40.8883 60.8883C41.0055 60.7711 41.0055 60.5812 40.8883 60.464L38.767 58.3427C38.6498 58.2255 38.4599 58.2255 38.3427 58.3427Z" fill="white"/>
<path id="Line 6_4" opacity="0.4" fill-rule="evenodd" clip-rule="evenodd" d="M5.10862 43.1087C4.99146 43.2258 4.99146 43.4158 5.10862 43.5329L8.64415 47.0685C8.76131 47.1856 8.95126 47.1856 9.06842 47.0685C9.18558 46.9513 9.18558 46.7614 9.06842 46.6442L5.53288 43.1087C5.41573 42.9915 5.22578 42.9915 5.10862 43.1087ZM22.1294 51.1295C22.0123 51.2467 22.0123 51.4366 22.1294 51.5538L25.665 55.0893C25.7821 55.2065 25.9721 55.2065 26.0892 55.0893C26.2064 54.9721 26.2064 54.7822 26.0892 54.665L22.5537 51.1295C22.4365 51.0123 22.2466 51.0123 22.1294 51.1295Z" fill="white"/>
<path id="Line 6_5" opacity="0.4" d="M4.40159 52.8258C4.28443 52.7087 4.28443 52.5187 4.40159 52.4016C4.51875 52.2844 4.7087 52.2844 4.82585 52.4016L7.65428 55.23C7.77144 55.3472 7.77144 55.5371 7.65428 55.6543C7.53712 55.7714 7.34717 55.7714 7.23002 55.6543L4.40159 52.8258Z" fill="white"/>
<path id="Line 6 Copy" opacity="0.4" fill-rule="evenodd" clip-rule="evenodd" d="M54.5229 3.5229C54.4058 3.64006 54.4058 3.83 54.5229 3.94716L55.23 4.65427C55.3472 4.77143 55.5371 4.77143 55.6543 4.65427C55.7715 4.53711 55.7715 4.34716 55.6543 4.23L54.9472 3.5229C54.83 3.40574 54.6401 3.40574 54.5229 3.5229ZM67.958 16.9579C67.8408 17.0751 67.8408 17.265 67.958 17.3822L68.6651 18.0893C68.7822 18.2065 68.9722 18.2065 69.0893 18.0893C69.2065 17.9721 69.2065 17.7822 69.0893 17.665L68.3822 16.9579C68.2651 16.8408 68.0751 16.8408 67.958 16.9579Z" fill="white"/>
<path id="Line 6_6" opacity="0.4" fill-rule="evenodd" clip-rule="evenodd" d="M27.1797 9.60402C27.0626 9.48686 27.0626 9.29691 27.1797 9.17975C27.2969 9.0626 27.4868 9.0626 27.604 9.17975L34.6751 16.2508C34.7922 16.368 34.7922 16.5579 34.6751 16.6751C34.5579 16.7922 34.368 16.7922 34.2508 16.6751L27.1797 9.60402ZM1.15488 33.8121C1.03773 33.695 1.03773 33.505 1.15488 33.3879C1.27204 33.2707 1.46199 33.2707 1.57915 33.3879L8.65022 40.4589C8.76737 40.5761 8.76737 40.766 8.65022 40.8832C8.53306 41.0004 8.34311 41.0004 8.22595 40.8832L1.15488 33.8121ZM63.3635 51.3635C63.2463 51.4807 63.2463 51.6706 63.3635 51.7878L68.5924 56.8831C68.7096 57.0003 68.8996 57.0003 69.0167 56.8831C69.1339 56.766 69.1339 56.576 69.0167 56.4589L63.7878 51.3635C63.6706 51.2464 63.4807 51.2464 63.3635 51.3635Z" fill="white"/>
<path id="Path" opacity="0.6" d="M4.17979 13.604C4.06263 13.4869 4.06263 13.2969 4.17979 13.1798C4.29694 13.0626 4.48689 13.0626 4.60405 13.1798L11.6751 20.2508C11.7923 20.368 11.7923 20.5579 11.6751 20.6751C11.558 20.7922 11.368 20.7922 11.2509 20.6751L4.17979 13.604Z" fill="white"/>
<path id="Path Copy" opacity="0.120554" d="M43.1549 28.8121C43.0377 28.695 43.0377 28.505 43.1549 28.3879C43.272 28.2707 43.462 28.2707 43.5791 28.3879L45.7005 30.5092C45.8176 30.6263 45.8176 30.8163 45.7005 30.9335C45.5833 31.0506 45.3934 31.0506 45.2762 30.9335L43.1549 28.8121Z" fill="white"/>
<path id="Path_2" opacity="0.5" d="M37.029 4.45326C36.9119 4.3361 36.9119 4.14615 37.029 4.02899C37.1462 3.91184 37.3361 3.91184 37.4533 4.02899L39.5746 6.15031C39.6918 6.26747 39.6918 6.45742 39.5746 6.57458C39.4575 6.69174 39.2675 6.69174 39.1504 6.57458L37.029 4.45326Z" fill="white"/>
<path id="Path_3" opacity="0.5" d="M56.4223 22.8467C56.3052 22.7295 56.3052 22.5396 56.4223 22.4224C56.5395 22.3052 56.7294 22.3052 56.8466 22.4224L62.5035 28.0792C62.6206 28.1964 62.6206 28.3864 62.5035 28.5035C62.3863 28.6207 62.1964 28.6207 62.0792 28.5035L56.4223 22.8467Z" fill="white"/>
<path id="Combined Shape" fill-rule="evenodd" clip-rule="evenodd" d="M32.966 25.7304C34.1868 28.4064 35.1034 30.1067 35.7358 30.8554C36.4076 31.6509 37.4823 31.7094 38.9025 31.0967C39.2502 32.2608 39.3825 33.1358 39.3058 33.7076C39.215 34.3839 39.0418 35.2804 38.786 36.395L38.6812 36.8517L39.1444 36.7942C39.9701 36.6917 40.4341 36.8163 40.5917 37.1033C40.7921 37.4685 40.8993 38.5567 40.8817 40.2979L40.8776 40.7009L41.2713 40.6231C42.4924 40.3819 43.4131 40.0253 44.0351 39.5434C44.43 39.2374 44.8005 38.8418 45.1475 38.3573C45.2484 39.2649 45.4874 39.9782 45.8717 40.497C46.4299 41.2506 47.1469 41.4888 47.9406 41.1646L48.1263 41.0887L48.143 40.8881C48.2099 40.0858 48.3822 39.6633 48.5751 39.5909C48.7844 39.5123 48.8651 39.3782 48.9847 39.0749L49.0221 38.9795C49.079 38.8356 49.118 38.7645 49.143 38.7433C49.1383 38.7473 49.1405 38.7506 49.2144 38.7945C49.1941 38.7825 49.2312 38.8393 49.2895 38.9288C49.3178 38.9722 49.3511 39.0232 49.3852 39.0778C49.5314 39.3111 49.7334 39.6529 49.9907 40.1019L50.088 40.2719L50.2832 40.2663C51.3369 40.2356 52.1674 39.9992 52.769 39.5461C53.3587 39.1019 53.9439 38.2849 54.54 37.0921C54.7728 36.6347 54.9781 36.3733 55.1118 36.3138C55.2831 36.2376 55.3747 36.3226 55.5767 36.7715C55.5801 36.7791 55.5901 36.8014 55.6025 36.8293C55.627 36.8845 55.6614 36.9617 55.6748 36.9912C55.8468 37.3689 55.9725 37.5498 56.2253 37.6234C56.8446 37.804 57.6406 37.717 58.6205 37.3766C58.9078 38.4107 59.2046 39.1121 59.528 39.4956C59.9096 39.9481 60.5198 40.1994 61.3414 40.2654L61.4636 40.2519L63.0957 39.747C63.0477 40.2992 63.0698 40.8685 63.1616 41.4543L63.1875 41.6195L63.3359 41.6955C63.6996 41.8816 63.7855 42.1472 63.7328 42.7146C63.7267 42.7801 63.7202 42.8391 63.7071 42.9509C63.61 43.7782 63.6432 44.11 64.0522 44.4182C64.6524 44.8704 65.46 44.8704 66.4427 44.4585L66.522 44.4111C67.1025 43.9411 67.5022 43.7689 67.6695 43.8315C67.8491 43.8986 68.0849 44.3223 68.2983 45.1017L68.4378 45.6112L68.8306 45.2595C69.4491 44.7058 69.9865 44.8195 70.6181 45.6883C71.3858 46.7444 72.7345 47.8447 74.6657 49C74.6657 49 71.8525 46.2739 71.1457 45.3016C70.4215 44.3053 69.5998 44.0126 68.7918 44.479C68.5534 43.7768 68.2706 43.3563 67.8976 43.2168C67.4464 43.048 66.88 43.2859 66.1492 43.8705C65.3812 44.184 64.8231 44.1789 64.4443 43.8935C64.3056 43.7889 64.2876 43.6094 64.3559 43.0276C64.3696 42.9107 64.3765 42.8479 64.3833 42.7755C64.4519 42.0363 64.3148 41.5347 63.7844 41.1975C63.6974 40.5516 63.7049 39.9325 63.8062 39.3391L63.896 38.8131L61.3322 39.6061C60.7027 39.5466 60.2727 39.3636 60.0265 39.0717C59.7495 38.7432 59.4527 38.0001 59.1594 36.8628L59.0674 36.5059L58.7252 36.6392C57.7086 37.035 56.9327 37.1467 56.4074 36.9935C56.4106 36.9944 56.4042 36.983 56.3905 36.9584C56.3674 36.9171 56.3236 36.8385 56.2688 36.7183C56.257 36.6923 56.2252 36.6209 56.201 36.5664C56.1874 36.5358 56.1761 36.5105 56.172 36.5014C55.8368 35.7567 55.4851 35.4302 54.8471 35.7141C54.5367 35.8522 54.2545 36.2115 53.9572 36.7958C53.4014 37.908 52.8698 38.6501 52.377 39.0213C51.93 39.358 51.2918 39.5545 50.4578 39.6023C49.9297 38.6847 49.6947 38.3178 49.5474 38.2302C49.2519 38.0544 48.9659 38.0474 48.7388 38.228C48.5925 38.3443 48.5149 38.4847 48.415 38.7374L48.3774 38.8334C48.3685 38.8559 48.3602 38.8758 48.3531 38.8931C48.3247 38.9615 48.3134 38.9888 48.3463 38.9765C47.8715 39.1548 47.6164 39.7097 47.5132 40.6174C47.09 40.7247 46.736 40.5647 46.3958 40.1055C45.9718 39.533 45.7489 38.6005 45.7452 37.3075L45.7415 36.0443L45.1327 37.1497C44.6734 37.9837 44.1734 38.6077 43.636 39.024C43.1696 39.3854 42.4695 39.6781 41.5369 39.8954C41.5358 38.2707 41.4197 37.2529 41.1638 36.7867C40.8923 36.2922 40.3334 36.0785 39.521 36.1059C39.7277 35.1722 39.8717 34.4024 39.9532 33.7952C40.0534 33.0478 39.8713 31.9699 39.4153 30.5431C39.3548 30.3538 39.1403 30.2612 38.9617 30.3482C37.6068 31.0084 36.7216 31.0084 36.234 30.4311C35.6582 29.7494 34.7698 28.1043 33.5882 25.5192C33.53 22.498 33.325 20.9005 32.8659 20.4878C32.5192 20.176 31.9515 19.8469 31.1563 19.4917C31.463 18.1461 31.5143 17.1545 31.2823 16.5017C31.2114 16.2701 31.1074 16.0778 30.9694 15.9245C30.5396 15.447 29.7942 15.1434 28.7859 14.9436C28.3923 14.8656 27.9829 14.8081 27.5127 14.7582C27.458 14.7524 27.3357 14.7405 27.1993 14.7271C26.9759 14.7053 26.7148 14.6798 26.6518 14.6717C26.6238 14.668 26.6007 14.6646 26.5824 14.6615C25.6614 14.5015 25.0353 14.4561 23.5564 14.3986C22.3806 14.3529 21.9369 14.2933 21.7062 14.1272C21.4855 13.9683 21.3685 13.8286 21.3424 13.6363C21.3364 13.4222 21.4269 13.1424 21.5999 12.7163C21.8177 12.1795 21.8997 11.9086 21.9036 11.5625C21.9045 11.4804 21.8995 11.3997 21.888 11.3201C21.8774 11.2219 21.8572 11.1256 21.8268 11.031C21.4521 9.86186 20.9785 9.83729 21.0657 10.6213C21.0808 10.7984 21.1261 11.0207 21.21 11.2837C21.225 11.3306 21.2355 11.3785 21.2418 11.4279C21.2434 11.452 21.2441 11.4765 21.2438 11.5014C21.2411 11.7341 21.1754 11.9505 20.9894 12.4071C20.7667 12.9536 20.6492 13.3624 20.6783 13.7046C20.6902 14.105 20.8876 14.4134 21.331 14.7337C21.7179 15.0134 22.1913 15.0772 23.5415 15.1299C24.995 15.1866 25.6029 15.231 26.4882 15.3853C26.5167 15.3903 26.5488 15.395 26.5856 15.3998C26.6595 15.4094 26.9461 15.4375 27.1769 15.4602C27.3047 15.4727 27.4154 15.4836 27.4634 15.4887C27.9168 15.5369 28.3089 15.5923 28.6815 15.6664C29.5641 15.8419 30.2006 16.1023 30.511 16.4485C30.841 16.8166 30.4263 19.3801 30.3553 19.8023L30.3422 19.8548L30.3461 19.8565C30.3456 19.8595 30.3453 19.8611 30.3453 19.8611C30.6106 20.9472 30.7013 21.6127 30.5037 21.8487C30.531 21.8161 30.4771 21.8079 30.3146 21.7831C30.2734 21.7768 30.2253 21.7695 30.1698 21.7604C29.7852 21.6976 29.5375 21.6824 29.2548 21.7343L29.2376 21.7375C28.9288 21.7975 28.5459 22.0483 28.0497 22.4908L27.9711 22.5609L27.9476 22.664C27.7613 23.4815 27.7613 24.0281 28.0083 24.3481C28.1852 24.5772 28.4968 24.8077 28.9491 25.0535C28.7702 26.7139 28.779 27.9423 28.9822 28.7524C29.1903 29.5823 29.6769 30.2797 30.4308 30.8376C30.4391 31.4103 30.3763 31.7721 30.2765 31.8959C30.1195 32.0907 29.8045 32.3818 29.3381 32.7594L29.2091 32.8638L29.216 33.0305C29.266 34.2348 29.6719 34.9344 30.4625 34.972C30.4872 35.0505 30.5061 35.1783 30.5292 35.4166C30.6232 36.3841 30.6765 36.7227 30.8919 37.3243C31.0272 37.7023 31.49 38.0336 32.2924 38.3912C33.5618 38.8341 33.6513 39.2211 32.7154 39.9557C32.1644 40.3882 32.1269 40.8491 32.291 42.0672C32.3281 42.3424 32.3453 42.4881 32.3574 42.6501C32.3688 42.8032 32.372 42.9406 32.3661 43.0686C32.3503 43.4116 32.2582 45 32.2582 45C32.3985 44.5645 32.502 44.2533 32.5805 44.0171C32.758 43.4835 32.8079 43.3336 32.8659 43C32.8918 42.8515 32.8698 42.6127 32.8443 42.3353C32.7872 41.7141 32.7124 40.8998 33.1177 40.4766C34.442 39.0934 34.2451 38.3736 32.5315 37.7773C31.9143 37.501 31.5605 37.2477 31.5077 37.1002C31.3173 36.5682 31.2694 36.2643 31.1808 35.3523C31.107 34.5916 31.007 34.3135 30.5305 34.3135C30.1632 34.3135 29.9375 33.9785 29.8793 33.1668C30.3085 32.8129 30.6086 32.5305 30.7846 32.3123C31.026 32.0127 31.11 31.4711 31.081 30.6521L31.0751 30.4854L30.9385 30.3914C30.233 29.9055 29.7969 29.3081 29.6169 28.5906C29.4287 27.84 29.4287 26.6057 29.6247 24.9035L29.6511 24.6745L29.4469 24.5707C28.9633 24.3248 28.6531 24.1086 28.525 23.9427C28.4464 23.8409 28.442 23.486 28.563 22.9153C28.9358 22.5914 29.2126 22.4146 29.3615 22.3857L29.372 22.3837C29.5615 22.3489 29.7494 22.3605 30.0651 22.412C30.695 22.5149 30.8004 22.5178 31.004 22.2745C31.3286 21.8868 31.3766 21.2129 31.1899 20.2288C31.7691 20.5039 32.1838 20.7549 32.4302 20.9765C32.6801 21.2012 32.8853 22.8237 32.9363 25.5998L32.966 25.7304Z" fill="url(#paint1_linear_6_303)"/>
</g>
</g>
</g>
<defs>
<linearGradient id="paint0_linear_6_303" x1="126" y1="42" x2="42" y2="-42" gradientUnits="userSpaceOnUse">
<stop stop-color="#253363"/>
<stop offset="1" stop-color="#5A79E8"/>
</linearGradient>
<linearGradient id="paint1_linear_6_303" x1="-15.9378" y1="18.1877" x2="17.8515" y2="75.0237" gradientUnits="userSpaceOnUse">
<stop stop-color="#4C63B2"/>
<stop offset="0.721854" stop-color="white" stop-opacity="0.707796"/>
<stop offset="1" stop-color="white" stop-opacity="0.0971919"/>
</linearGradient>
<clipPath id="clip0_6_303">
<rect width="84" height="84" rx="42" fill="white"/>
</clipPath>
</defs>
</svg>
